# xmcd CD database file
#
# Track frame offsets:
#	150
#	127632
#	176864
#	287128
#
# Disc length: 4644 seconds
#
# Revision: 1
# Processed by: cddbd v1.5.2PL0 Copyright (c) Steve Scherf et al.
# Submitted via: CDex 1.70beta3
#
DISCID=32122204
DTITLE=Lol Coxhill - Out to Launch
DYEAR=2002
DGENRE=Jazz
TTITLE0=Music for Feathery Fronds
TTITLE1=The Unlaunched Orchestra
TTITLE2=Relaunch One
TTITLE3=Relaunch Two
EXTD=YEAR: 2002
EXTT0=
EXTT1=
EXTT2=
EXTT3=
PLAYORDER=
